<?xml version="1.0" encoding="UTF-8"?>
<svg width="282px" height="344px" viewBox="0 0 282 344" version="1.1" xmlns="http://www.w3.org/2000/svg" xmlns:xlink="http://www.w3.org/1999/xlink">
    <!-- Generator: Sketch 44.1 (41455) - http://www.bohemiancoding.com/sketch -->
    <title>Untitled</title>
    <desc>Created with Sketch.</desc>
    <defs>
        <linearGradient x1="100%" y1="38.8746062%" x2="-1.54526638e-08%" y2="38.0799319%" id="linearGradient-1">
            <stop stop-color="#366A96" offset="0%"></stop>
            <stop stop-color="#3679B0" offset="100%"></stop>
        </linearGradient>
        <linearGradient x1="99.9999999%" y1="49.9999965%" x2="-97.5501467%" y2="49.9999965%" id="linearGradient-2">
            <stop stop-color="#FFC836" offset="0%"></stop>
            <stop stop-color="#FFE873" offset="100%"></stop>
        </linearGradient>
        <path d="M167.024754,166.306931 C167.024754,144.118812 160.698022,132.727723 148.044558,132.10396 C143.009894,131.866337 138.094063,132.668317 133.311874,134.524753 C129.495046,135.891089 126.925749,137.242574 125.574257,138.608911 L125.574257,191.569306 C133.66831,196.648513 140.856441,199.0099 147.123765,198.638614 C160.386139,197.762375 167.024754,186.995049 167.024754,166.306931 Z M182.633662,167.227722 C182.633662,178.499999 179.990101,187.856434 174.673267,195.297028 C168.747522,203.71782 160.534652,208.054452 150.034657,208.292086 C142.118814,208.54456 133.965352,206.064353 125.574257,200.866335 L125.574257,249 L112,244.158418 L112,137.316832 C114.227717,134.584158 117.094056,132.237624 120.569305,130.247525 C128.648518,125.539605 138.465339,123.118812 150.019801,123 L150.212867,123.193069 C160.772271,123.059405 168.910892,127.39604 174.628714,136.188119 C179.960389,144.252475 182.633662,154.589109 182.633662,167.227722 Z" id="path-3"></path>
    </defs>
    <g id="Page-1" stroke="none" stroke-width="1" fill="none" fill-rule="evenodd">
        <g id="plnt-copy" transform="translate(120.000000, 0.000000)" fill="#33C258">
            <path d="M1.25371816,62.9194631 C34.61197,62.9194631 56.7608901,69.185414 67.7004786,81.7173158 C78.640067,94.2492177 83.8586297,105.818144 83.3561668,116.424094 C53.2313082,102.403236 31.0427199,94.458905 16.790402,92.5911019 C2.53808402,90.7232987 -2.64081058,80.8327525 1.25371816,62.9194631 Z" id="Path-2"></path>
            <path d="M79.3158943,72.9865772 C112.674146,72.9865772 134.823066,79.2525281 145.762655,91.7844299 C156.702243,104.316332 161.920806,115.885258 161.418343,126.491208 C131.293484,112.47035 109.104896,104.526019 94.8525781,102.658216 C80.6002602,100.790413 75.4213656,90.8998666 79.3158943,72.9865772 Z" id="Path-2-Copy" transform="translate(119.756808, 99.738893) scale(-1, 1) translate(-119.756808, -99.738893) "></path>
            <path d="M79.7409326,0.124283329 C96.2835231,9.65871242 104.554818,28.2976981 104.554818,56.0412405 C104.554818,83.7847828 103.296514,103.02448 100.779906,113.760333 C99.85548,110.938716 98.6472576,97.9543126 97.1552386,74.8071237 C95.6632195,51.6599349 89.8584509,26.7656548 79.7409326,0.124283329 Z" id="Path-2-Copy-2" transform="translate(92.147875, 56.942308) scale(-1, 1) translate(-92.147875, -56.942308) "></path>
            <path d="M78.3801298,75.5033557 C89.106568,117.804193 94.4697871,152.826383 94.4697871,180.569926 C94.4697871,208.313468 89.106568,231.287447 78.3801298,249.491862 C65.4715026,232.316883 62.2443458,209.342904 68.6986594,180.569926 C75.152973,151.796947 78.3801298,116.774757 78.3801298,75.5033557 Z" id="Path-2-Copy-3"></path>
        </g>
        <g id="plnt-copy-2" transform="translate(81.000000, 219.000000) scale(-1, -1) translate(-81.000000, -219.000000) translate(0.000000, 94.000000)" fill="#33C258">
            <path d="M1.25371816,62.9194631 C34.61197,62.9194631 56.7608901,69.185414 67.7004786,81.7173158 C78.640067,94.2492177 83.8586297,105.818144 83.3561668,116.424094 C53.2313082,102.403236 31.0427199,94.458905 16.790402,92.5911019 C2.53808402,90.7232987 -2.64081058,80.8327525 1.25371816,62.9194631 Z" id="Path-2"></path>
            <path d="M79.3158943,72.9865772 C112.674146,72.9865772 134.823066,79.2525281 145.762655,91.7844299 C156.702243,104.316332 161.920806,115.885258 161.418343,126.491208 C131.293484,112.47035 109.104896,104.526019 94.8525781,102.658216 C80.6002602,100.790413 75.4213656,90.8998666 79.3158943,72.9865772 Z" id="Path-2-Copy" transform="translate(119.756808, 99.738893) scale(-1, 1) translate(-119.756808, -99.738893) "></path>
            <path d="M79.7409326,0.124283329 C96.2835231,9.65871242 104.554818,28.2976981 104.554818,56.0412405 C104.554818,83.7847828 103.296514,103.02448 100.779906,113.760333 C99.85548,110.938716 98.6472576,97.9543126 97.1552386,74.8071237 C95.6632195,51.6599349 89.8584509,26.7656548 79.7409326,0.124283329 Z" id="Path-2-Copy-2" transform="translate(92.147875, 56.942308) scale(-1, 1) translate(-92.147875, -56.942308) "></path>
            <path d="M78.3801298,75.5033557 C89.106568,117.804193 94.4697871,152.826383 94.4697871,180.569926 C94.4697871,208.313468 89.106568,231.287447 78.3801298,249.491862 C65.4715026,232.316883 62.2443458,209.342904 68.6986594,180.569926 C75.152973,151.796947 78.3801298,116.774757 78.3801298,75.5033557 Z" id="Path-2-Copy-3"></path>
        </g>
        <g id="Group-2" transform="translate(24.000000, 50.000000)">
            <path d="M61.2434742,31.795579 C61.2434742,15.4365648 65.6298935,6.53658246 89.8505562,2.29849589 C106.294337,-0.583402413 127.378819,-0.9436397 147.043535,2.29849589 C162.576122,4.86253853 175.650616,16.4325146 175.650616,31.795579 L175.650616,85.7676111 C175.650616,101.59687 162.957549,114.565412 147.043535,114.565412 L89.8505562,114.565412 C70.440122,114.565412 54.0811077,131.115132 54.0811077,149.826288 L54.0811077,175.720995 L34.416386,175.720995 C17.7818954,175.720995 8.09786784,163.727219 4.0293054,146.94439 C-1.45901718,124.397776 -1.22592239,110.963039 4.0293054,89.3699851 C8.58524763,70.5316903 23.1430754,60.5933766 39.7775649,60.5933766 L61.2434742,60.5933766 L118.457637,60.5933766 L118.457637,53.3886296 L61.2434742,53.3886296 L61.2434742,31.795579 L61.2434742,31.795579 Z" id="path1948" fill="url(#linearGradient-1)" fill-rule="nonzero"></path>
            <circle id="Oval" fill="#FFFFFF" cx="88" cy="29" r="13"></circle>
        </g>
        <g id="Group" transform="translate(84.000000, 109.000000)">
            <path d="M114.407141,143.925418 C114.407141,160.284431 100.209552,168.569895 85.8000606,172.702023 C64.1222503,178.932014 46.7249095,177.978443 28.607082,172.702023 C13.4771147,168.29442 0,159.288482 0,143.925418 L0,89.9533863 C0,74.4207989 12.9473533,61.1555864 28.607082,61.1555864 L85.8000606,61.1555864 C104.850265,61.1555864 121.569509,44.6906222 121.569509,25.1742345 L121.569509,0 L143.014234,0 C159.669906,0 167.51037,12.3752127 171.621315,28.7766085 C177.342734,51.5563197 177.597014,68.5934293 171.621315,86.3510135 C165.836323,103.600025 159.648723,115.127618 143.014234,115.127618 L114.407141,115.127618 L57.2141628,115.127618 L57.2141628,122.332364 L114.407141,122.332364 L114.407141,143.925418 Z" id="path1950" fill="url(#linearGradient-2)" fill-rule="nonzero"></path>
            <circle id="Oval-Copy" fill="#FFFFFF" cx="88" cy="142" r="13"></circle>
        </g>
        <g id="path46" fill-rule="nonzero">
            <use fill="#FFFFFF" fill-rule="evenodd" xlink:href="#path-3"></use>
            <path stroke="#33C158" stroke-width="4" d="M127.574257,190.453231 C127.263538,190.264878 126.951227,190.072214 126.637327,189.875234 L127.574257,191.569306 L127.574257,190.453231 Z M127.574257,139.508464 L127.574257,138.608911 L125.574257,138.608911 L126.996174,140.015379 C127.160438,139.849311 127.353146,139.680241 127.574257,139.508464 Z M127.574257,190.453231 L127.574257,139.508464 C128.816887,138.543086 130.956575,137.492181 133.98594,136.407738 C138.548453,134.637335 143.185075,133.876831 147.950268,134.101736 C159.256728,134.659102 165.024754,145.051026 165.024754,166.306931 C165.024754,186.060104 158.996412,195.849833 146.991913,196.642964 C141.444893,196.971535 134.959323,194.929959 127.574257,190.453231 Z M127.574257,204.347076 L127.574257,251.836756 L110,245.568479 L110,136.604911 L110.449834,136.053113 C112.822421,133.142731 115.868255,130.634864 119.562354,128.519506 C127.964695,123.623293 138.122615,121.122231 149.999236,121.000106 L150.839701,120.991463 L151.03995,121.191716 C161.872877,121.291686 170.36586,125.96483 176.297057,135.085109 C181.866605,143.509256 184.633662,154.231119 184.633662,167.227722 C184.633662,178.909062 181.868835,188.667277 176.308879,196.448015 C170.01367,205.393837 161.207568,210.039735 150.098414,210.291069 C142.744019,210.525636 135.230743,208.532575 127.574257,204.347076 Z"></path>
        </g>
    </g>
</svg>